<?xml version="1.0" encoding="iso-8859-1"?>
<svg version="1.1" id="Layer_1" xmlns="http://www.w3.org/2000/svg" xmlns:xlink="http://www.w3.org/1999/xlink" x="0px" y="0px"
	 viewBox="0 0 512 512" style="enable-background:new 0 0 512 512;" xml:space="preserve">
<g>
	<g>
		<path fill="#70798C" d="M480,106.667h-64V21.333C416,9.557,406.464,0,394.667,0H181.333C169.536,0,160,9.557,160,21.333v85.333H96
			c-11.797,0-21.333,9.557-21.333,21.333H53.333v-21.333c0-11.776-9.536-21.333-21.333-21.333s-21.333,9.557-21.333,21.333V192
			c0,11.776,9.536,21.333,21.333,21.333S53.333,203.776,53.333,192v-21.333h21.333V192c0,11.776,9.536,21.333,21.333,21.333v149.461
			c0,35.221,28.651,63.872,63.872,63.872H160v34.539C160,489.216,182.784,512,210.795,512h154.411
			c28.01,0,50.794-22.784,50.794-50.795v-34.539h0.128c35.221,0,63.872-28.651,63.872-63.872V213.333
			c11.797,0,21.333-9.557,21.333-21.333v-64C501.333,116.224,491.797,106.667,480,106.667z M181.333,277.333
			c0-11.776,9.557-21.333,21.333-21.333c11.776,0,21.334,9.557,21.334,21.333s-9.557,21.333-21.333,21.333
			S181.333,289.109,181.333,277.333z M373.334,405.333L373.334,405.333l-0.001,55.872c0,4.48-3.648,8.128-8.128,8.128h-154.41
			c-4.48,0-8.128-3.648-8.128-8.128v-55.872V384h170.667V405.333z M266.667,277.333c0-11.776,9.557-21.333,21.333-21.333
			s21.333,9.557,21.333,21.333s-9.557,21.333-21.333,21.333S266.667,289.109,266.667,277.333z M373.333,298.667
			c-11.776,0-21.333-9.557-21.333-21.333S361.557,256,373.333,256s21.333,9.557,21.333,21.333S385.109,298.667,373.333,298.667z
			 M117.333,170.667v-21.333h64h213.333h64v21.333H117.333z"/>
	</g>
</g>
<g>
	<g>
		<path fill="#70798C" d="M309.334,405.334h-42.667c-11.797,0-21.333,9.557-21.333,21.333S254.869,448,266.667,448h42.667
			c11.797,0,21.333-9.557,21.333-21.333S321.131,405.334,309.334,405.334z"/>
	</g>
</g>
<g>
</g>
<g>
</g>
<g>
</g>
<g>
</g>
<g>
</g>
<g>
</g>
<g>
</g>
<g>
</g>
<g>
</g>
<g>
</g>
<g>
</g>
<g>
</g>
<g>
</g>
<g>
</g>
<g>
</g>
</svg>
