<svg width="123" height="123" xmlns="http://www.w3.org/2000/svg" xml:space="preserve" version="1.1">
  <g>
    <title>Layer 1</title>
    <g id="svg_1">
      <path id="svg_2" fill="#70798C" clip-rule="evenodd" fill-rule="evenodd" d="m122.94,61.515c0,-8.14 -10.19,-15.85 -25.82,-20.64c3.61,-15.93 2,-28.6 -5.06,-32.66c-1.63,-0.95 -3.53,-1.4 -5.61,-1.4l0,5.59c1.15,0 2.08,0.23 2.86,0.65c3.41,1.95 4.88,9.39 3.73,18.96c-0.28,2.35 -0.73,4.83 -1.28,7.36c-4.91,-1.2 -10.27,-2.13 -15.9,-2.73c-3.38,-4.63 -6.89,-8.84 -10.42,-12.52c8.16,-7.6 15.82,-11.75 21.03,-11.75l0,-5.59l0,0c-6.89,0 -15.9,4.91 -25.02,13.43c-9.12,-8.47 -18.13,-13.33 -25.02,-13.33l0,5.59c5.18,0 12.87,4.13 21.04,11.67c-3.51,3.68 -7.01,7.86 -10.34,12.5c-5.66,0.6 -11.02,1.53 -15.93,2.75c-0.58,-2.5 -1,-4.93 -1.3,-7.26c-1.18,-9.57 0.28,-17.01 3.66,-18.99c0.75,-0.45 1.73,-0.65 2.88,-0.65l0,-5.58l0,0c-2.1,0 -4.01,0.45 -5.66,1.4c-7.04,4.06 -8.62,16.71 -4.98,32.59c-15.6,4.8 -25.74,12.49 -25.74,20.61c0,8.14 10.19,15.85 25.82,20.64c-3.61,15.93 -2,28.6 5.06,32.66c1.63,0.95 3.53,1.4 5.64,1.4c6.89,0 15.9,-4.91 25.02,-13.43c9.12,8.47 18.13,13.33 25.02,13.33c2.1,0 4.01,-0.45 5.66,-1.4c7.04,-4.06 8.62,-16.71 4.98,-32.59c15.54,-4.78 25.68,-12.5 25.68,-20.61l0,0zm-50.02,0c0,-6.32 -5.12,-11.45 -11.45,-11.45c-6.32,0 -11.45,5.12 -11.45,11.45s5.12,11.45 11.45,11.45c6.33,-0.01 11.45,-5.13 11.45,-11.45l0,0zm-36.52,-54.63l0,0l0,0l0,0zm53.93,37.92c-0.93,3.23 -2.08,6.56 -3.38,9.89c-1.03,-2 -2.1,-4.01 -3.28,-6.01c-1.15,-2 -2.38,-3.96 -3.61,-5.86c3.56,0.53 6.99,1.18 10.27,1.98l0,0zm-11.47,26.68c-1.95,3.38 -3.96,6.59 -6.04,9.57c-3.73,0.33 -7.51,0.5 -11.32,0.5c-3.78,0 -7.56,-0.18 -11.27,-0.48c-2.08,-2.98 -4.11,-6.16 -6.06,-9.52c-1.9,-3.28 -3.63,-6.61 -5.21,-9.97c1.55,-3.36 3.31,-6.71 5.18,-9.99c1.95,-3.38 3.96,-6.59 6.04,-9.57c3.73,-0.33 7.51,-0.5 11.32,-0.5c3.78,0 7.56,0.18 11.27,0.48c2.08,2.98 4.11,6.16 6.06,9.52c1.9,3.28 3.63,6.61 5.21,9.97c-1.58,3.35 -3.3,6.7 -5.18,9.99l0,0zm8.09,-3.26c1.35,3.36 2.5,6.71 3.46,9.97c-3.28,0.8 -6.74,1.48 -10.32,2c1.23,-1.93 2.45,-3.91 3.61,-5.94c1.14,-2 2.22,-4.03 3.25,-6.03l0,0zm-25.4,26.72c-2.33,-2.4 -4.66,-5.08 -6.96,-8.01c2.25,0.1 4.56,0.18 6.89,0.18c2.35,0 4.68,-0.05 6.96,-0.18c-2.26,2.93 -4.59,5.61 -6.89,8.01l0,0zm-18.63,-14.75c-3.56,-0.53 -6.99,-1.18 -10.27,-1.98c0.93,-3.23 2.08,-6.56 3.38,-9.89c1.03,2 2.1,4.01 3.28,6.01c1.18,2.01 2.38,3.96 3.61,5.86l0,0zm18.5,-52.12c2.33,2.4 4.66,5.08 6.96,8.01c-2.25,-0.1 -4.56,-0.18 -6.89,-0.18c-2.35,0 -4.68,0.05 -6.96,0.18c2.26,-2.93 4.59,-5.61 6.89,-8.01l0,0zm-18.53,14.75c-1.23,1.93 -2.45,3.91 -3.61,5.94c-1.15,2 -2.23,4.01 -3.26,6.01c-1.35,-3.36 -2.5,-6.71 -3.46,-9.97c3.29,-0.78 6.75,-1.45 10.33,-1.98l0,0zm-22.67,31.36c-8.87,-3.78 -14.6,-8.74 -14.6,-12.67c0,-3.93 5.74,-8.92 14.6,-12.67c2.15,-0.93 4.51,-1.75 6.94,-2.53c1.43,4.91 3.31,10.02 5.64,15.25c-2.3,5.21 -4.16,10.29 -5.56,15.18c-2.48,-0.78 -4.84,-1.63 -7.02,-2.56l0,0zm13.48,35.79c-3.41,-1.95 -4.88,-9.39 -3.73,-18.96c0.28,-2.35 0.73,-4.83 1.28,-7.36c4.91,1.2 10.27,2.13 15.9,2.73c3.38,4.63 6.89,8.84 10.42,12.52c-8.17,7.59 -15.83,11.75 -21.04,11.75c-1.13,-0.03 -2.08,-0.25 -2.83,-0.68l0,0zm59.41,-19.08c1.18,9.57 -0.28,17.01 -3.66,18.99c-0.75,0.45 -1.73,0.65 -2.88,0.65c-5.18,0 -12.87,-4.13 -21.04,-11.67c3.51,-3.68 7.01,-7.86 10.34,-12.5c5.66,-0.6 11.02,-1.53 15.93,-2.76c0.58,2.53 1.03,4.96 1.31,7.29l0,0zm9.64,-16.71c-2.15,0.93 -4.51,1.75 -6.94,2.53c-1.43,-4.91 -3.31,-10.02 -5.64,-15.25c2.3,-5.21 4.16,-10.29 5.56,-15.18c2.48,0.78 4.83,1.63 7.04,2.55c8.87,3.78 14.6,8.74 14.6,12.67c-0.02,3.94 -5.75,8.92 -14.62,12.68l0,0z" class="st0"/>
    </g>
  </g>
</svg>
